<svg xmlns="http://www.w3.org/2000/svg" viewBox="0 0 826 498" width="826" height="498" role="img" aria-label="Eight cats, one per seed word">
<title>Eight cats, one per seed word</title>
<defs><pattern id="dots" width="18" height="18" patternUnits="userSpaceOnUse">
<circle cx="2" cy="2" r="1.5" fill="#211a33" opacity=".09"/></pattern></defs>
<rect width="826" height="498" fill="#ded8f0"/><rect width="826" height="498" fill="url(#dots)"/><g>
<rect x="32" y="32" width="180" height="180" rx="18" fill="#211a33" opacity=".82"/>
<g transform="translate(26,26) scale(0.45)"><defs>
<clipPath id="bc16f8567r0"><path d="M200,222 C268,222 304,276 304,318 C304,348 264,358 200,358 C136,358 96,348 96,318 C96,276 132,222 200,222 Z"/></clipPath>
<clipPath id="hc16f8567r0"><path d="M124,174 L126,124 L122,84 L162,116
    L238,116 L278,84 L274,124 L276,174
    C275,216 248,240 200,242
    C152,240 125,216 124,174 Z"/></clipPath>
<clipPath id="fc16f8567r0"><rect x="0" y="0" width="400" height="400" rx="40"/></clipPath>
</defs>
<g clip-path="url(#fc16f8567r0)">
<rect x="0" y="0" width="400" height="400" fill="#FFD9B8"/><path d="M84,400 L84,180 A116,116 0 0 1 316,180 L316,400 Z" fill="#FFF7ED" opacity=".16"/>
<ellipse cx="200" cy="362" rx="142" ry="14" fill="#8F4F3F" opacity=".16"/>
<g transform="translate(200,368) scale(1) rotate(0) translate(-200,-368)">
<g><path d="M300,330 C330,328 342,308 334,292" fill="none" stroke="#D98763" stroke-width="36" stroke-linecap="round"/><path d="M300,330 C330,328 342,308 334,292" pathLength="100" fill="none" stroke="#FFF7ED" stroke-width="36" stroke-linecap="round" stroke-dasharray="16 100" stroke-dashoffset="-84"/></g>
<path d="M200,222 C268,222 304,276 304,318 C304,348 264,358 200,358 C136,358 96,348 96,318 C96,276 132,222 200,222 Z" fill="none" stroke="#D98763" stroke-width="14" stroke-dasharray="3 13"/>
<path d="M200,222 C268,222 304,276 304,318 C304,348 264,358 200,358 C136,358 96,348 96,318 C96,276 132,222 200,222 Z" fill="#D98763"/>
<g clip-path="url(#bc16f8567r0)"><circle cx="199.5" cy="291.2" r="13.9" fill="#8F4F3F"/><circle cx="276.1" cy="307.7" r="10.3" fill="#8F4F3F"/><circle cx="239.3" cy="255" r="8.7" fill="#8F4F3F"/><circle cx="243.4" cy="300" r="11" fill="#8F4F3F"/><circle cx="193.2" cy="316.2" r="9.6" fill="#8F4F3F"/><circle cx="134.8" cy="253.3" r="13.4" fill="#8F4F3F"/><circle cx="128.4" cy="299.4" r="12.6" fill="#8F4F3F"/><circle cx="118.8" cy="346.4" r="12.3" fill="#8F4F3F"/><circle cx="218.3" cy="282.4" r="10.3" fill="#8F4F3F"/></g>
<rect x="158" y="345" width="46" height="17" rx="8.5" fill="#FFF7ED" transform="rotate(-8 181 353)"/><rect x="196" y="343" width="46" height="17" rx="8.5" fill="#FFF7ED" transform="rotate(6 219 351)"/>
<g><ellipse cx="176" cy="307" rx="18" ry="11" fill="#FFF7ED" transform="rotate(18 176 307)"/><ellipse cx="224" cy="307" rx="18" ry="11" fill="#FFF7ED" transform="rotate(-18 224 307)"/><g transform="translate(200,300) scale(.94) translate(-200,-300)"><rect x="180" y="284" width="40" height="34" rx="6" fill="#FFF7ED" stroke="#8F4F3F" stroke-width="2"/><path d="M220,294 a10,10 0 0,1 0,16" fill="none" stroke="#8F4F3F" stroke-width="4"/><rect x="180" y="284" width="40" height="9" fill="#4B7C8C"/></g></g>
<g transform="translate(200,170) scale(1,1) translate(-200,-170)">
  <path d="M124,174 L126,124 L122,84 L162,116
    L238,116 L278,84 L274,124 L276,174
    C275,216 248,240 200,242
    C152,240 125,216 124,174 Z" fill="#D98763"/>
  <g clip-path="url(#hc16f8567r0)"><path d="M124,176 q22,-16 40,4 q-18,26 -40,16 Z" fill="#8F4F3F"/><path d="M276,176 q-22,-16 -40,4 q18,26 40,16 Z" fill="#8F4F3F"/></g>
  <path d="M138,102 L166,122 L128,124 Z" fill="#4B7C8C" opacity=".5"/>
            <path d="M262,102 L234,122 L272,124 Z" fill="#4B7C8C" opacity=".5"/>
  <g stroke="#FFF7ED" stroke-width="2.6" stroke-linecap="round" fill="none" opacity=".8"><path d="M222,202 L282,192"/><path d="M222,207 L280,214"/><path d="M222,211 L274,228"/></g>
  <g><circle cx="170" cy="166" r="14" fill="#fff" stroke="#623d2d" stroke-width="2"/><circle cx="173" cy="170" r="6" fill="#623d2d"/><circle cx="230" cy="166" r="14" fill="#fff" stroke="#623d2d" stroke-width="2"/><circle cx="233" cy="170" r="6" fill="#623d2d"/></g>
  
  <path d="M200,205 C187,195 190,188 196,193 C199,195 201,195 204,193 C210,188 213,195 200,205 Z" fill="#4B7C8C"/>
  <path d="M182,205 q18,20 36,0 Z" fill="#623d2d"/><path d="M182,205 h36" stroke="#FFF7ED" stroke-width="2.5"/>
  <path d="M142,150 h116 v10 q0,26 -26,26 q-24,0 -26,-22 h-12 q-2,22 -26,22 q-26,0 -26,-26 Z" fill="#17151F" stroke="#FFF7ED" stroke-width="2.5"/><path d="M142,148 h116" stroke="#4B7C8C" stroke-width="5" stroke-linecap="round"/>
</g>
<g></g>
</g>
<circle cx="62" cy="346" r="18" fill="#D98763"/><path d="M44,346 a18,18 0 0,0 36,0" fill="#4B7C8C"/>
<rect x="0" y="0" width="400" height="400" fill="#5B6BA8" opacity=".13"/>
<g stroke="#FFF7ED" stroke-width="5" fill="none" opacity=".65"><path d="M20,60 V20 H60 M340,20 H380 V60 M380,340 V380 H340 M60,380 H20 V340"/></g>

</g></g>
<rect x="26" y="26" width="180" height="180" rx="18" fill="none" stroke="#211a33" stroke-width="3.5"/>
</g><text x="116" y="232" text-anchor="middle" font-family="'IBM Plex Mono', ui-monospace, SFMono-Regular, Menlo, monospace" font-size="18" fill="#211a33" opacity=".75">mackerel</text>
<g>
<rect x="230" y="32" width="180" height="180" rx="18" fill="#211a33" opacity=".82"/>
<g transform="translate(224,26) scale(0.45)"><defs>
<clipPath id="bc1emv5j2r1"><path d="M200,222 C268,222 304,276 304,318 C304,348 264,358 200,358 C136,358 96,348 96,318 C96,276 132,222 200,222 Z"/></clipPath>
<clipPath id="hc1emv5j2r1"><path d="M124,174 L126,124 L142,58 L172,116
    L228,116 L258,58 L274,124 L276,174
    C275,216 248,240 200,242
    C152,240 125,216 124,174 Z"/></clipPath>
<clipPath id="fc1emv5j2r1"><rect x="0" y="0" width="400" height="400" rx="40"/></clipPath>
</defs>
<g clip-path="url(#fc1emv5j2r1)">
<rect x="0" y="0" width="400" height="400" fill="#EDE7DA"/><circle cx="-18" cy="-18" r="4" fill="#FFFFFF" opacity=".22"/><circle cx="-18" cy="28" r="4" fill="#FFFFFF" opacity=".22"/><circle cx="-18" cy="74" r="4" fill="#FFFFFF" opacity=".22"/><circle cx="-18" cy="120" r="4" fill="#FFFFFF" opacity=".22"/><circle cx="-18" cy="166" r="4" fill="#FFFFFF" opacity=".22"/><circle cx="-18" cy="212" r="4" fill="#FFFFFF" opacity=".22"/><circle cx="-18" cy="258" r="4" fill="#FFFFFF" opacity=".22"/><circle cx="-18" cy="304" r="4" fill="#FFFFFF" opacity=".22"/><circle cx="-18" cy="350" r="4" fill="#FFFFFF" opacity=".22"/><circle cx="-18" cy="396" r="4" fill="#FFFFFF" opacity=".22"/><circle cx="28" cy="-18" r="4" fill="#FFFFFF" opacity=".22"/><circle cx="28" cy="28" r="4" fill="#FFFFFF" opacity=".22"/><circle cx="28" cy="74" r="4" fill="#FFFFFF" opacity=".22"/><circle cx="28" cy="120" r="4" fill="#FFFFFF" opacity=".22"/><circle cx="28" cy="166" r="4" fill="#FFFFFF" opacity=".22"/><circle cx="28" cy="212" r="4" fill="#FFFFFF" opacity=".22"/><circle cx="28" cy="258" r="4" fill="#FFFFFF" opacity=".22"/><circle cx="28" cy="304" r="4" fill="#FFFFFF" opacity=".22"/><circle cx="28" cy="350" r="4" fill="#FFFFFF" opacity=".22"/><circle cx="28" cy="396" r="4" fill="#FFFFFF" opacity=".22"/><circle cx="74" cy="-18" r="4" fill="#FFFFFF" opacity=".22"/><circle cx="74" cy="28" r="4" fill="#FFFFFF" opacity=".22"/><circle cx="74" cy="74" r="4" fill="#FFFFFF" opacity=".22"/><circle cx="74" cy="120" r="4" fill="#FFFFFF" opacity=".22"/><circle cx="74" cy="166" r="4" fill="#FFFFFF" opacity=".22"/><circle cx="74" cy="212" r="4" fill="#FFFFFF" opacity=".22"/><circle cx="74" cy="258" r="4" fill="#FFFFFF" opacity=".22"/><circle cx="74" cy="304" r="4" fill="#FFFFFF" opacity=".22"/><circle cx="74" cy="350" r="4" fill="#FFFFFF" opacity=".22"/><circle cx="74" cy="396" r="4" fill="#FFFFFF" opacity=".22"/><circle cx="120" cy="-18" r="4" fill="#FFFFFF" opacity=".22"/><circle cx="120" cy="28" r="4" fill="#FFFFFF" opacity=".22"/><circle cx="120" cy="74" r="4" fill="#FFFFFF" opacity=".22"/><circle cx="120" cy="120" r="4" fill="#FFFFFF" opacity=".22"/><circle cx="120" cy="166" r="4" fill="#FFFFFF" opacity=".22"/><circle cx="120" cy="212" r="4" fill="#FFFFFF" opacity=".22"/><circle cx="120" cy="258" r="4" fill="#FFFFFF" opacity=".22"/><circle cx="120" cy="304" r="4" fill="#FFFFFF" opacity=".22"/><circle cx="120" cy="350" r="4" fill="#FFFFFF" opacity=".22"/><circle cx="120" cy="396" r="4" fill="#FFFFFF" opacity=".22"/><circle cx="166" cy="-18" r="4" fill="#FFFFFF" opacity=".22"/><circle cx="166" cy="28" r="4" fill="#FFFFFF" opacity=".22"/><circle cx="166" cy="74" r="4" fill="#FFFFFF" opacity=".22"/><circle cx="166" cy="120" r="4" fill="#FFFFFF" opacity=".22"/><circle cx="166" cy="166" r="4" fill="#FFFFFF" opacity=".22"/><circle cx="166" cy="212" r="4" fill="#FFFFFF" opacity=".22"/><circle cx="166" cy="258" r="4" fill="#FFFFFF" opacity=".22"/><circle cx="166" cy="304" r="4" fill="#FFFFFF" opacity=".22"/><circle cx="166" cy="350" r="4" fill="#FFFFFF" opacity=".22"/><circle cx="166" cy="396" r="4" fill="#FFFFFF" opacity=".22"/><circle cx="212" cy="-18" r="4" fill="#FFFFFF" opacity=".22"/><circle cx="212" cy="28" r="4" fill="#FFFFFF" opacity=".22"/><circle cx="212" cy="74" r="4" fill="#FFFFFF" opacity=".22"/><circle cx="212" cy="120" r="4" fill="#FFFFFF" opacity=".22"/><circle cx="212" cy="166" r="4" fill="#FFFFFF" opacity=".22"/><circle cx="212" cy="212" r="4" fill="#FFFFFF" opacity=".22"/><circle cx="212" cy="258" r="4" fill="#FFFFFF" opacity=".22"/><circle cx="212" cy="304" r="4" fill="#FFFFFF" opacity=".22"/><circle cx="212" cy="350" r="4" fill="#FFFFFF" opacity=".22"/><circle cx="212" cy="396" r="4" fill="#FFFFFF" opacity=".22"/><circle cx="258" cy="-18" r="4" fill="#FFFFFF" opacity=".22"/><circle cx="258" cy="28" r="4" fill="#FFFFFF" opacity=".22"/><circle cx="258" cy="74" r="4" fill="#FFFFFF" opacity=".22"/><circle cx="258" cy="120" r="4" fill="#FFFFFF" opacity=".22"/><circle cx="258" cy="166" r="4" fill="#FFFFFF" opacity=".22"/><circle cx="258" cy="212" r="4" fill="#FFFFFF" opacity=".22"/><circle cx="258" cy="258" r="4" fill="#FFFFFF" opacity=".22"/><circle cx="258" cy="304" r="4" fill="#FFFFFF" opacity=".22"/><circle cx="258" cy="350" r="4" fill="#FFFFFF" opacity=".22"/><circle cx="258" cy="396" r="4" fill="#FFFFFF" opacity=".22"/><circle cx="304" cy="-18" r="4" fill="#FFFFFF" opacity=".22"/><circle cx="304" cy="28" r="4" fill="#FFFFFF" opacity=".22"/><circle cx="304" cy="74" r="4" fill="#FFFFFF" opacity=".22"/><circle cx="304" cy="120" r="4" fill="#FFFFFF" opacity=".22"/><circle cx="304" cy="166" r="4" fill="#FFFFFF" opacity=".22"/><circle cx="304" cy="212" r="4" fill="#FFFFFF" opacity=".22"/><circle cx="304" cy="258" r="4" fill="#FFFFFF" opacity=".22"/><circle cx="304" cy="304" r="4" fill="#FFFFFF" opacity=".22"/><circle cx="304" cy="350" r="4" fill="#FFFFFF" opacity=".22"/><circle cx="304" cy="396" r="4" fill="#FFFFFF" opacity=".22"/><circle cx="350" cy="-18" r="4" fill="#FFFFFF" opacity=".22"/><circle cx="350" cy="28" r="4" fill="#FFFFFF" opacity=".22"/><circle cx="350" cy="74" r="4" fill="#FFFFFF" opacity=".22"/><circle cx="350" cy="120" r="4" fill="#FFFFFF" opacity=".22"/><circle cx="350" cy="166" r="4" fill="#FFFFFF" opacity=".22"/><circle cx="350" cy="212" r="4" fill="#FFFFFF" opacity=".22"/><circle cx="350" cy="258" r="4" fill="#FFFFFF" opacity=".22"/><circle cx="350" cy="304" r="4" fill="#FFFFFF" opacity=".22"/><circle cx="350" cy="350" r="4" fill="#FFFFFF" opacity=".22"/><circle cx="350" cy="396" r="4" fill="#FFFFFF" opacity=".22"/><circle cx="396" cy="-18" r="4" fill="#FFFFFF" opacity=".22"/><circle cx="396" cy="28" r="4" fill="#FFFFFF" opacity=".22"/><circle cx="396" cy="74" r="4" fill="#FFFFFF" opacity=".22"/><circle cx="396" cy="120" r="4" fill="#FFFFFF" opacity=".22"/><circle cx="396" cy="166" r="4" fill="#FFFFFF" opacity=".22"/><circle cx="396" cy="212" r="4" fill="#FFFFFF" opacity=".22"/><circle cx="396" cy="258" r="4" fill="#FFFFFF" opacity=".22"/><circle cx="396" cy="304" r="4" fill="#FFFFFF" opacity=".22"/><circle cx="396" cy="350" r="4" fill="#FFFFFF" opacity=".22"/><circle cx="396" cy="396" r="4" fill="#FFFFFF" opacity=".22"/>
<ellipse cx="200" cy="362" rx="159" ry="14" fill="#20202A" opacity=".16"/>
<g transform="translate(200,368) scale(1.12) rotate(-6) translate(-200,-368)">
<g><path d="M300,330 C358,338 384,314 372,282" fill="none" stroke="#20202A" stroke-width="24" stroke-linecap="round"/><path d="M300,330 C358,338 384,314 372,282" pathLength="100" fill="none" stroke="#5B6BA8" stroke-width="24" stroke-linecap="round" stroke-dasharray="30 100" stroke-dashoffset="-70"/></g>
<path d="M200,222 C268,222 304,276 304,318 C304,348 264,358 200,358 C136,358 96,348 96,318 C96,276 132,222 200,222 Z" fill="none" stroke="#20202A" stroke-width="14" stroke-dasharray="3 13"/>
<path d="M200,222 C268,222 304,276 304,318 C304,348 264,358 200,358 C136,358 96,348 96,318 C96,276 132,222 200,222 Z" fill="#20202A"/>
<g clip-path="url(#bc1emv5j2r1)"></g>
<rect x="158" y="345" width="46" height="17" rx="8.5" fill="#FFFFFF" transform="rotate(-8 181 353)"/><rect x="196" y="343" width="46" height="17" rx="8.5" fill="#FFFFFF" transform="rotate(6 219 351)"/>

<g transform="translate(200,170) scale(1,1) translate(-200,-170)">
  <path d="M124,174 L126,124 L142,58 L172,116
    L228,116 L258,58 L274,124 L276,174
    C275,216 248,240 200,242
    C152,240 125,216 124,174 Z" fill="#20202A"/>
  <g clip-path="url(#hc1emv5j2r1)"><path d="M80,140 L320,140 L320,192 L80,192 Z" fill="#5B6BA8"/></g>
  <path d="M138,76 L166,122 L128,124 Z" fill="#D8452F" opacity=".5"/>
            <path d="M262,76 L234,122 L272,124 Z" fill="#D8452F" opacity=".5"/>
  
  <g><path d="M155,166 Q170,152 185,166 Q170,178 155,166 Z" fill="#D8452F"/><rect x="168" y="157" width="4" height="18" rx="2" fill="#0e0e13"/><path d="M215,166 Q230,152 245,166 Q230,178 215,166 Z" fill="#D8452F"/><rect x="228" y="157" width="4" height="18" rx="2" fill="#0e0e13"/></g>
  
  <path d="M195,194 L205,194 L200,200 Z" fill="#D8452F"/>
  <path d="M182,205 q18,20 36,0 Z" fill="#0e0e13"/><path d="M182,205 h36" stroke="#FFFFFF" stroke-width="2.5"/>
  <path d="M128,130 C140,66 260,66 272,130" fill="none" stroke="#5B6BA8" stroke-width="9"/><circle cx="124" cy="136" r="20" fill="#D8452F"/><circle cx="276" cy="136" r="20" fill="#D8452F"/>
</g>
<g><text x="284" y="112" font-size="46" font-family="monospace" font-weight="700" fill="#5B6BA8">?</text></g>
</g>
<path d="M46,358 l4,-24 h24 l4,24 Z" fill="#D8452F"/><path d="M62,334 q-26,-6 -22,-34 q24,4 22,34 Z" fill="#5B6BA8"/><path d="M62,334 q26,-10 24,-38 q-26,8 -24,38 Z" fill="#5B6BA8" opacity=".8"/>
<rect x="0" y="0" width="400" height="400" fill="#F2B233" opacity=".12"/>
<rect x="16" y="16" width="368" height="368" rx="12" fill="none" stroke="#FFFFFF" stroke-width="4" stroke-dasharray="14 10" opacity=".65"/>

</g></g>
<rect x="224" y="26" width="180" height="180" rx="18" fill="none" stroke="#211a33" stroke-width="3.5"/>
</g><text x="314" y="232" text-anchor="middle" font-family="'IBM Plex Mono', ui-monospace, SFMono-Regular, Menlo, monospace" font-size="18" fill="#211a33" opacity=".75">biscuit</text>
<g>
<rect x="428" y="32" width="180" height="180" rx="18" fill="#211a33" opacity=".82"/>
<g transform="translate(422,26) scale(0.45)"><defs>
<clipPath id="bc1fs2d7br2"><path d="M144,242 C124,280 118,326 122,356 L278,356 C282,320 270,280 254,242 C226,226 172,226 144,242 Z"/></clipPath>
<clipPath id="hc1fs2d7br2"><path d="M124,182 L108,120 L118,86 L176,122
      L224,122 L282,86 L292,120 L276,182
      C275,224 248,248 200,250 C152,248 125,224 124,182 Z"/></clipPath>
<clipPath id="fc1fs2d7br2"><rect x="0" y="0" width="400" height="400" rx="40"/></clipPath>
</defs>
<g clip-path="url(#fc1fs2d7br2)">
<rect x="0" y="0" width="400" height="400" fill="#E8D9C5"/><rect x="0" y="252" width="400" height="148" fill="#4A2F23" opacity=".16"/><path d="M0,252 H400" stroke="#FFF8EC" stroke-width="4" opacity=".3"/>
<ellipse cx="200" cy="362" rx="118" ry="14" fill="#4A2F23" opacity=".16"/>
<g transform="translate(200,368) scale(1) rotate(0) translate(-200,-368)">
<g><path d="M276,344 C338,350 306,304 352,274" fill="none" stroke="#4A2F23" stroke-width="18" stroke-linecap="round"/><path d="M276,344 C338,350 306,304 352,274" pathLength="100" fill="none" stroke="#674431" stroke-width="18" stroke-dasharray="7 9"/></g>

<path d="M144,242 C124,280 118,326 122,356 L278,356 C282,320 270,280 254,242 C226,226 172,226 144,242 Z" fill="#9C6B4A"/>
<g clip-path="url(#bc1fs2d7br2)"><path d="M80,232 L200,254 L320,232 v14 L200,268 L80,246 Z" fill="#674431" opacity=".75"/><path d="M80,258 L200,280 L320,258 v14 L200,294 L80,272 Z" fill="#674431" opacity=".75"/><path d="M80,284 L200,306 L320,284 v14 L200,320 L80,298 Z" fill="#674431" opacity=".75"/><path d="M80,310 L200,332 L320,310 v14 L200,346 L80,324 Z" fill="#674431" opacity=".75"/><path d="M80,336 L200,358 L320,336 v14 L200,372 L80,350 Z" fill="#674431" opacity=".75"/><path d="M80,362 L200,384 L320,362 v14 L200,398 L80,376 Z" fill="#674431" opacity=".75"/></g>
<rect x="158" y="343" width="46" height="17" rx="8.5" fill="#FFF8EC" transform="rotate(-8 181 351)"/><rect x="196" y="341" width="46" height="17" rx="8.5" fill="#FFF8EC" transform="rotate(6 219 349)"/>
<g><ellipse cx="176" cy="307" rx="18" ry="11" fill="#FFF8EC" transform="rotate(18 176 307)"/><ellipse cx="224" cy="307" rx="18" ry="11" fill="#FFF8EC" transform="rotate(-18 224 307)"/><g transform="translate(200,300) scale(.94) translate(-200,-300)"><path d="M200,306 q30,-30 84,-52" stroke="#4A2F23" stroke-width="2" fill="none"/><ellipse cx="292" cy="216" rx="26" ry="31" fill="#3F7D6E"/><path d="M292,247 l-7,10 14,0 Z" fill="#3F7D6E"/></g></g>
<g transform="translate(200,178) scale(0.9,1.1) translate(-200,-178)">
  <path d="M124,182 L108,120 L118,86 L176,122
      L224,122 L282,86 L292,120 L276,182
      C275,224 248,248 200,250 C152,248 125,224 124,182 Z" fill="#4A2F23"/>
  <g clip-path="url(#hc1fs2d7br2)"><circle cx="144" cy="138" r="3" fill="#674431" opacity=".72"/><circle cx="165" cy="128" r="2.3" fill="#674431" opacity=".72"/><circle cx="188" cy="135" r="2.3" fill="#674431" opacity=".72"/><circle cx="212" cy="128" r="3" fill="#674431" opacity=".72"/><circle cx="236" cy="137" r="2.3" fill="#674431" opacity=".72"/><circle cx="255" cy="130" r="2.3" fill="#674431" opacity=".72"/><circle cx="153" cy="151" r="3" fill="#674431" opacity=".72"/><circle cx="178" cy="147" r="2.3" fill="#674431" opacity=".72"/><circle cx="203" cy="151" r="2.3" fill="#674431" opacity=".72"/><circle cx="227" cy="146" r="3" fill="#674431" opacity=".72"/><circle cx="249" cy="154" r="2.3" fill="#674431" opacity=".72"/><circle cx="196" cy="140" r="2.3" fill="#674431" opacity=".72"/></g>
  <path d="M120,98 L166,128 L126,130 Z" fill="#3F7D6E" opacity=".5"/>
      <path d="M280,98 L234,128 L274,130 Z" fill="#3F7D6E" opacity=".5"/>
  <g stroke="#FFF8EC" stroke-width="2.6" stroke-linecap="round" fill="none" opacity=".8"><path d="M178,208 L96,196"/><path d="M178,214 L100,228"/><path d="M222,208 L304,196"/><path d="M222,214 L300,228"/></g>
  <g><path d="M156,170 a14,14 0 0,1 28,0 z" fill="#FFF8EC"/><circle cx="170" cy="169" r="5" fill="#211510"/><path d="M156,170 h28" stroke="#211510" stroke-width="3" stroke-linecap="round"/><path d="M216,170 a14,14 0 0,1 28,0 z" fill="#FFF8EC"/><circle cx="230" cy="169" r="5" fill="#211510"/><path d="M216,170 h28" stroke="#211510" stroke-width="3" stroke-linecap="round"/></g>
  
  <path d="M200,213 C187,203 190,196 196,201 C199,203 201,203 204,201 C210,196 213,203 200,213 Z" fill="#3F7D6E"/>
  <path d="M200,210 v6 M200,216 q-9,7 -15,-1 M200,216 q9,7 15,-1" stroke="#211510" stroke-width="3" fill="none" stroke-linecap="round"/><path d="M202,218 q10,2 8,12 q-8,4 -10,-6 Z" fill="#3F7D6E"/>
  <path d="M142,150 L264,134" stroke="#17151F" stroke-width="6"/><path d="M144,154 L196,160 L194,194 L146,190 Z" fill="#17151F" stroke="#FFF8EC" stroke-width="2"/>
</g>
<g><g fill="#FFF8EC" font-family="monospace" font-weight="700"><text x="286" y="106" font-size="34">Z</text><text x="314" y="136" font-size="24">z</text><text x="266" y="146" font-size="18">z</text></g></g>
</g>
<circle cx="62" cy="346" r="18" fill="#9C6B4A"/><path d="M44,346 a18,18 0 0,0 36,0" fill="#3F7D6E"/>
<rect x="0" y="0" width="400" height="400" fill="#FBF9F3" opacity=".18"/>


</g></g>
<rect x="422" y="26" width="180" height="180" rx="18" fill="none" stroke="#211a33" stroke-width="3.5"/>
</g><text x="512" y="232" text-anchor="middle" font-family="'IBM Plex Mono', ui-monospace, SFMono-Regular, Menlo, monospace" font-size="18" fill="#211a33" opacity=".75">juniper</text>
<g>
<rect x="626" y="32" width="180" height="180" rx="18" fill="#211a33" opacity=".82"/>
<g transform="translate(620,26) scale(0.45)"><defs>
<clipPath id="bc1coyc8yr3"><path d="M166,280 C150,304 146,334 150,356 L250,356 C254,334 250,304 234,280 C218,270 182,270 166,280 Z"/></clipPath>
<clipPath id="hc1coyc8yr3"><path d="M124,214 L108,152 L118,118 L176,154
      L224,154 L282,118 L292,152 L276,214
      C275,256 248,280 200,282 C152,280 125,256 124,214 Z"/></clipPath>
<clipPath id="fc1coyc8yr3"><rect x="0" y="0" width="400" height="400" rx="40"/></clipPath>
</defs>
<g clip-path="url(#fc1coyc8yr3)">
<rect x="0" y="0" width="400" height="400" fill="#FF9EC4"/><path d="M200,-40 L440,400 L-40,400 Z" fill="#FFF0F6" opacity=".16"/>
<ellipse cx="200" cy="362" rx="75.7" ry="14" fill="#7A2E5A" opacity=".16"/>
<g transform="translate(200,368) scale(0.86) rotate(0) translate(-200,-368)">
<g><path d="M248,348 C306,350 320,306 290,278" fill="none" stroke="#C4568F" stroke-width="24" stroke-linecap="round"/><path d="M248,348 C306,350 320,306 290,278" pathLength="100" fill="none" stroke="#C4568F" stroke-width="42" stroke-linecap="round" stroke-dasharray="9 100" stroke-dashoffset="-91"/></g>

<path d="M166,280 C150,304 146,334 150,356 L250,356 C254,334 250,304 234,280 C218,270 182,270 166,280 Z" fill="#C4568F"/>
<g clip-path="url(#bc1coyc8yr3)"><rect x="80" y="332" width="240" height="30" fill="#FFF0F6"/></g>
<path d="M168,346 q32,-12 64,0 q-32,16 -64,0 Z" fill="#FFF0F6"/>
<g><ellipse cx="176" cy="322" rx="18" ry="11" fill="#FFF0F6" transform="rotate(18 176 322)"/><ellipse cx="224" cy="322" rx="18" ry="11" fill="#FFF0F6" transform="rotate(-18 224 322)"/><g transform="translate(200,315) scale(.94) translate(-200,-315)"><rect x="180" y="299" width="40" height="34" rx="6" fill="#FFF0F6" stroke="#7A2E5A" stroke-width="2"/><path d="M220,309 a10,10 0 0,1 0,16" fill="none" stroke="#7A2E5A" stroke-width="4"/><rect x="180" y="299" width="40" height="9" fill="#4ED6C8"/></g></g>
<g transform="translate(200,210) scale(1.2,0.9) translate(-200,-210)">
  <path d="M124,214 L108,152 L118,118 L176,154
      L224,154 L282,118 L292,152 L276,214
      C275,256 248,280 200,282 C152,280 125,256 124,214 Z" fill="#C4568F"/>
  <g clip-path="url(#hc1coyc8yr3)"><g stroke="#7A2E5A" stroke-width="5" stroke-linecap="round" fill="none"><path d="M174,158 l6,20 M200,152 v20 M226,158 l-6,20"/></g></g>
  <path d="M120,130 L166,160 L126,162 Z" fill="#4ED6C8" opacity=".5"/>
      <path d="M280,130 L234,160 L274,162 Z" fill="#4ED6C8" opacity=".5"/>
  <g stroke="#FFF0F6" stroke-width="2.6" stroke-linecap="round" fill="none" opacity=".8"><path d="M222,242 L282,232"/><path d="M222,247 L280,254"/><path d="M222,251 L274,268"/></g>
  <g><circle cx="170" cy="206" r="12" fill="#FFF0F6"/><path d="M170,206 m0,-8 a8,8 0 1,1 -5,14 a5,5 0 1,0 5,-9" fill="none" stroke="#582740" stroke-width="3"/><circle cx="230" cy="206" r="12" fill="#FFF0F6"/><path d="M230,206 m0,-8 a8,8 0 1,1 -5,14 a5,5 0 1,0 5,-9" fill="none" stroke="#582740" stroke-width="3"/></g>
  <g stroke="#582740" stroke-width="3" stroke-linecap="round" fill="none"><path d="M162,220 l-6,7 M238,220 l6,7"/></g>
  <circle cx="200" cy="237" r="5.5" fill="#4ED6C8"/>
  <path d="M200,242 v4" stroke="#582740" stroke-width="3" fill="none" stroke-linecap="round"/><ellipse cx="200" cy="253" rx="8" ry="9" fill="#582740"/><ellipse cx="200" cy="257" rx="4.5" ry="4" fill="#4ED6C8"/>
  
</g>
<g></g>
</g>
<rect x="46" y="322" width="32" height="36" rx="5" fill="#C4568F" stroke="#7A2E5A" stroke-width="2"/><rect x="46" y="330" width="32" height="14" fill="#4ED6C8" opacity=".8"/>
<rect x="0" y="0" width="400" height="400" fill="#FBF9F3" opacity=".18"/>
<circle cx="200" cy="200" r="182" fill="none" stroke="#FFF0F6" stroke-width="5" opacity=".55"/>

</g></g>
<rect x="620" y="26" width="180" height="180" rx="18" fill="none" stroke="#211a33" stroke-width="3.5"/>
</g><text x="710" y="232" text-anchor="middle" font-family="'IBM Plex Mono', ui-monospace, SFMono-Regular, Menlo, monospace" font-size="18" fill="#211a33" opacity=".75">clementine</text>
<g>
<rect x="32" y="264" width="180" height="180" rx="18" fill="#211a33" opacity=".82"/>
<g transform="translate(26,258) scale(0.45)"><defs>
<clipPath id="bcox3gxir4"><path d="M90,322 C92,286 136,268 204,270 C272,272 310,292 310,326 L308,356 L92,356 Z"/></clipPath>
<clipPath id="hcox3gxir4"><path d="M98,231 C96,199 99,156 126,154
      C126,151 135,155 144,159
      C162,153 186,153 204,159
      C213,155 222,151 222,154
      C249,156 252,199 250,231
      C249,270 222,294 174,296
      C126,294 99,270 98,231 Z"/></clipPath>
<clipPath id="fcox3gxir4"><rect x="0" y="0" width="400" height="400" rx="40"/></clipPath>
</defs>
<g clip-path="url(#fcox3gxir4)">
<rect x="0" y="0" width="400" height="400" fill="#C7D2AC"/><circle cx="200" cy="210" r="38" fill="none" stroke="#F4F1E0" stroke-width="6" opacity=".12"/><circle cx="200" cy="210" r="76" fill="none" stroke="#F4F1E0" stroke-width="6" opacity=".12"/><circle cx="200" cy="210" r="114" fill="none" stroke="#F4F1E0" stroke-width="6" opacity=".12"/><circle cx="200" cy="210" r="152" fill="none" stroke="#F4F1E0" stroke-width="6" opacity=".12"/><circle cx="200" cy="210" r="190" fill="none" stroke="#F4F1E0" stroke-width="6" opacity=".12"/><circle cx="200" cy="210" r="228" fill="none" stroke="#F4F1E0" stroke-width="6" opacity=".12"/><circle cx="200" cy="210" r="266" fill="none" stroke="#F4F1E0" stroke-width="6" opacity=".12"/><circle cx="200" cy="210" r="304" fill="none" stroke="#F4F1E0" stroke-width="6" opacity=".12"/>
<ellipse cx="200" cy="362" rx="146" ry="14" fill="#3E5233" opacity=".16"/>
<g transform="translate(200,368) scale(1) rotate(6) translate(-200,-368)">
<g><path d="M304,334 C354,338 374,288 366,234" fill="none" stroke="#8AA05A" stroke-width="24" stroke-linecap="round"/><path d="M304,334 C354,338 374,288 366,234" pathLength="100" fill="none" stroke="#8AA05A" stroke-width="42" stroke-linecap="round" stroke-dasharray="9 100" stroke-dashoffset="-91"/></g>

<path d="M90,322 C92,286 136,268 204,270 C272,272 310,292 310,326 L308,356 L92,356 Z" fill="#8AA05A"/>
<g clip-path="url(#bcox3gxir4)"><path d="M200,262 l9,20 22,2 -16,15 5,22 -20,-11 -20,11 5,-22 -16,-15 22,-2 Z" fill="#F4F1E0"/></g>

<g><ellipse cx="150" cy="319" rx="18" ry="11" fill="#F4F1E0" transform="rotate(18 150 319)"/><ellipse cx="198" cy="319" rx="18" ry="11" fill="#F4F1E0" transform="rotate(-18 198 319)"/><g transform="translate(174,312) scale(.94) translate(-174,-312)"><rect x="154" y="296" width="40" height="34" rx="6" fill="#F4F1E0" stroke="#3E5233" stroke-width="2"/><path d="M194,306 a10,10 0 0,1 0,16" fill="none" stroke="#3E5233" stroke-width="4"/><rect x="154" y="296" width="40" height="9" fill="#D96C3F"/></g></g>
<g transform="translate(174,224) scale(1.1,0.9) translate(-174,-224)">
  <path d="M98,231 C96,199 99,156 126,154
      C126,151 135,155 144,159
      C162,153 186,153 204,159
      C213,155 222,151 222,154
      C249,156 252,199 250,231
      C249,270 222,294 174,296
      C126,294 99,270 98,231 Z" fill="#8AA05A"/>
  <g clip-path="url(#hcox3gxir4)"><path d="M161,112 L187,112 L181,232 L167,232 Z" fill="#F4F1E0"/></g>
  <path d="M105,159 c-4,-22 25,-25 25,-5 c0,9 -8,12 -14,7" fill="none" stroke="#D96C3F" stroke-width="5" stroke-linecap="round"/>
      <path d="M243,159 c4,-22 -25,-25 -25,-5 c0,9 8,12 14,7" fill="none" stroke="#D96C3F" stroke-width="5" stroke-linecap="round"/>
  <g stroke="#F4F1E0" stroke-width="2.6" stroke-linecap="round" fill="none" opacity=".8"><path d="M196,256 L256,246"/><path d="M196,261 L254,268"/><path d="M196,265 L248,282"/></g>
  <g><circle cx="144" cy="220" r="12" fill="#F4F1E0"/><circle cx="146" cy="220" r="5" fill="#3e4828"/><circle cx="204" cy="220" r="12" fill="#F4F1E0"/><circle cx="206" cy="220" r="5" fill="#3e4828"/></g>
  
  <path d="M162,246 L186,246 L174,257 Z" fill="#D96C3F"/>
  <path d="M174,256 v6 M174,262 q-9,7 -15,-1 M174,262 q9,7 15,-1" stroke="#3e4828" stroke-width="3" fill="none" stroke-linecap="round"/><path d="M165,264 l5,0 -2.5,9 Z" fill="#F4F1E0"/><path d="M178,264 l5,0 -2.5,9 Z" fill="#F4F1E0"/>
  <path d="M122,166 L134,120 L156,148 L174,112 L192,148 L214,120 L226,166 Z" fill="#8AA05A" stroke="#3E5233" stroke-width="2"/><circle cx="174" cy="152" r="6" fill="#D96C3F"/>
</g>
<g></g>
</g>
<path d="M46,358 l4,-24 h24 l4,24 Z" fill="#D96C3F"/><path d="M62,334 q-26,-6 -22,-34 q24,4 22,34 Z" fill="#8AA05A"/><path d="M62,334 q26,-10 24,-38 q-26,8 -24,38 Z" fill="#8AA05A" opacity=".8"/>

<rect x="16" y="16" width="368" height="368" rx="12" fill="none" stroke="#F4F1E0" stroke-width="4" stroke-dasharray="14 10" opacity=".65"/>

</g></g>
<rect x="26" y="258" width="180" height="180" rx="18" fill="none" stroke="#211a33" stroke-width="3.5"/>
</g><text x="116" y="464" text-anchor="middle" font-family="'IBM Plex Mono', ui-monospace, SFMono-Regular, Menlo, monospace" font-size="18" fill="#211a33" opacity=".75">pebble</text>
<g>
<rect x="230" y="264" width="180" height="180" rx="18" fill="#211a33" opacity=".82"/>
<g transform="translate(224,258) scale(0.45)"><defs>
<clipPath id="bcw0mnb3r5"><path d="M112,314 C114,268 150,246 202,246 C256,246 290,272 292,316 L292,356 L108,356 Z"/></clipPath>
<clipPath id="hcw0mnb3r5"><path d="M98,213 C96,181 99,138 126,136
      C126,133 135,137 144,141
      C162,135 186,135 204,141
      C213,137 222,133 222,136
      C249,138 252,181 250,213
      C249,252 222,276 174,278
      C126,276 99,252 98,213 Z"/></clipPath>
<clipPath id="fcw0mnb3r5"><rect x="0" y="0" width="400" height="400" rx="40"/></clipPath>
</defs>
<g clip-path="url(#fcw0mnb3r5)">
<rect x="0" y="0" width="400" height="400" fill="#FF9EC4"/><circle cx="200" cy="210" r="38" fill="none" stroke="#FFF0F6" stroke-width="6" opacity=".12"/><circle cx="200" cy="210" r="76" fill="none" stroke="#FFF0F6" stroke-width="6" opacity=".12"/><circle cx="200" cy="210" r="114" fill="none" stroke="#FFF0F6" stroke-width="6" opacity=".12"/><circle cx="200" cy="210" r="152" fill="none" stroke="#FFF0F6" stroke-width="6" opacity=".12"/><circle cx="200" cy="210" r="190" fill="none" stroke="#FFF0F6" stroke-width="6" opacity=".12"/><circle cx="200" cy="210" r="228" fill="none" stroke="#FFF0F6" stroke-width="6" opacity=".12"/><circle cx="200" cy="210" r="266" fill="none" stroke="#FFF0F6" stroke-width="6" opacity=".12"/><circle cx="200" cy="210" r="304" fill="none" stroke="#FFF0F6" stroke-width="6" opacity=".12"/>
<ellipse cx="200" cy="362" rx="132" ry="14" fill="#7A2E5A" opacity=".16"/>
<g transform="translate(200,368) scale(1) rotate(-6) translate(-200,-368)">
<g><path d="M288,338 C318,336 330,316 322,300" fill="none" stroke="#7A2E5A" stroke-width="36" stroke-linecap="round"/></g>
<path d="M112,314 C114,268 150,246 202,246 C256,246 290,272 292,316 L292,356 L108,356 Z" fill="none" stroke="#C4568F" stroke-width="10" stroke-dasharray="4 10"/>
<path d="M112,314 C114,268 150,246 202,246 C256,246 290,272 292,316 L292,356 L108,356 Z" fill="#C4568F"/>
<g clip-path="url(#bcw0mnb3r5)"><circle cx="173.5" cy="291.4" r="49.6" fill="#943c6d"/></g>
<path d="M122,345 q32,-12 64,0 q-32,16 -64,0 Z" fill="#FFF0F6"/>
<g><ellipse cx="150" cy="311" rx="18" ry="11" fill="#FFF0F6" transform="rotate(18 150 311)"/><ellipse cx="198" cy="311" rx="18" ry="11" fill="#FFF0F6" transform="rotate(-18 198 311)"/><g transform="translate(174,304) scale(.94) translate(-174,-304)"><g transform="rotate(-24 174 304)"><rect x="168" y="264" width="12" height="60" fill="#C4568F"/><path d="M168,264 l6,-14 6,14 Z" fill="#FFF0F6"/><rect x="168" y="324" width="12" height="8" fill="#4ED6C8"/></g></g></g>
<g transform="translate(174,206) scale(1,1.1) translate(-174,-206)">
  <path d="M98,213 C96,181 99,138 126,136
      C126,133 135,137 144,141
      C162,135 186,135 204,141
      C213,137 222,133 222,136
      C249,138 252,181 250,213
      C249,252 222,276 174,278
      C126,276 99,252 98,213 Z" fill="#7A2E5A"/>
  <g clip-path="url(#hcw0mnb3r5)"><path d="M156,162 a18,18 0 1,0 18,18 a14,14 0 1,1 -18,-18 Z" fill="#FFF0F6"/></g>
  <path d="M105,141 c-4,-22 25,-25 25,-5 c0,9 -8,12 -14,7" fill="none" stroke="#4ED6C8" stroke-width="5" stroke-linecap="round"/>
      <path d="M243,141 c4,-22 -25,-25 -25,-5 c0,9 8,12 14,7" fill="none" stroke="#4ED6C8" stroke-width="5" stroke-linecap="round"/>
  
  <g><path d="M130,206 Q144,194 158,206" fill="none" stroke="#371528" stroke-width="4.5" stroke-linecap="round"/><path d="M190,206 Q204,194 218,206" fill="none" stroke="#371528" stroke-width="4.5" stroke-linecap="round"/></g>
  
  <path d="M162,228 L186,228 L174,239 Z" fill="#4ED6C8"/>
  <path d="M174,238 v6 M174,244 q-9,7 -15,-1 M174,244 q9,7 15,-1" stroke="#371528" stroke-width="3" fill="none" stroke-linecap="round"/><path d="M176,246 q10,2 8,12 q-8,4 -10,-6 Z" fill="#4ED6C8"/>
  <path d="M90,200 C90,102 258,102 258,200" fill="none" stroke="#4ED6C8" stroke-width="11" stroke-linecap="round"/><rect x="76" y="188" width="26" height="42" rx="12" fill="#4ED6C8"/><rect x="246" y="188" width="26" height="42" rx="12" fill="#4ED6C8"/>
</g>
<g><g fill="#FFF0F6" font-family="monospace" font-weight="700"><text x="260" y="134" font-size="34">Z</text><text x="288" y="164" font-size="24">z</text><text x="240" y="174" font-size="18">z</text></g></g>
</g>


<rect x="14" y="14" width="372" height="372" rx="10" fill="none" stroke="#FFF0F6" stroke-width="4" opacity=".6"/>

</g></g>
<rect x="224" y="258" width="180" height="180" rx="18" fill="none" stroke="#211a33" stroke-width="3.5"/>
</g><text x="314" y="464" text-anchor="middle" font-family="'IBM Plex Mono', ui-monospace, SFMono-Regular, Menlo, monospace" font-size="18" fill="#211a33" opacity=".75">tinsel</text>
<g>
<rect x="428" y="264" width="180" height="180" rx="18" fill="#211a33" opacity=".82"/>
<g transform="translate(422,258) scale(0.45)"><defs>
<clipPath id="bc1ntjv3pr6"><path d="M166,280 C150,304 146,334 150,356 L250,356 C254,334 250,304 234,280 C218,270 182,270 166,280 Z"/></clipPath>
<clipPath id="hc1ntjv3pr6"><path d="M124,217 C122,185 125,142 152,140
      C152,137 161,141 170,145
      C188,139 212,139 230,145
      C239,141 248,137 248,140
      C275,142 278,185 276,217
      C275,256 248,280 200,282
      C152,280 125,256 124,217 Z"/></clipPath>
<clipPath id="fc1ntjv3pr6"><rect x="0" y="0" width="400" height="400" rx="40"/></clipPath>
</defs>
<g clip-path="url(#fc1ntjv3pr6)">
<rect x="0" y="0" width="400" height="400" fill="#FFD9B8"/>
<ellipse cx="200" cy="362" rx="88" ry="14" fill="#8F4F3F" opacity=".16"/>
<g transform="translate(200,368) scale(1) rotate(0) translate(-200,-368)">
<g><path d="M248,348 L288,334 L268,308 L306,290" fill="none" stroke="#8F4F3F" stroke-width="16" stroke-linecap="round"/><path d="M248,348 L288,334 L268,308 L306,290" pathLength="100" fill="none" stroke="#a9634c" stroke-width="16" stroke-dasharray="7 9"/></g>
<path d="M166,280 C150,304 146,334 150,356 L250,356 C254,334 250,304 234,280 C218,270 182,270 166,280 Z" fill="none" stroke="#D98763" stroke-width="22" stroke-linecap="round" stroke-dasharray="2 18"/>
<path d="M166,280 C150,304 146,334 150,356 L250,356 C254,334 250,304 234,280 C218,270 182,270 166,280 Z" fill="#D98763"/>
<g clip-path="url(#bc1ntjv3pr6)"></g>
<rect x="165" y="342" width="30" height="18" rx="9" fill="#FFF7ED"/><rect x="205" y="342" width="30" height="18" rx="9" fill="#FFF7ED"/>

<g transform="translate(200,210) scale(1,1.2) translate(-200,-210)">
  <path d="M124,217 C122,185 125,142 152,140
      C152,137 161,141 170,145
      C188,139 212,139 230,145
      C239,141 248,137 248,140
      C275,142 278,185 276,217
      C275,256 248,280 200,282
      C152,280 125,256 124,217 Z" fill="#8F4F3F"/>
  <g clip-path="url(#hc1ntjv3pr6)"><g fill="#a9634c" opacity=".78"><circle cx="165" cy="232" r="2.6"/><circle cx="154" cy="237" r="2.2"/><circle cx="145" cy="230" r="2"/><circle cx="160" cy="243" r="1.8"/></g><g fill="#a9634c" opacity=".78"><circle cx="235" cy="232" r="2.6"/><circle cx="246" cy="237" r="2.2"/><circle cx="255" cy="230" r="2"/><circle cx="240" cy="243" r="1.8"/></g></g>
  <path d="M131,145 c-4,-22 25,-25 25,-5 c0,9 -8,12 -14,7" fill="none" stroke="#4B7C8C" stroke-width="5" stroke-linecap="round"/>
      <path d="M269,145 c4,-22 -25,-25 -25,-5 c0,9 8,12 14,7" fill="none" stroke="#4B7C8C" stroke-width="5" stroke-linecap="round"/>
  <g stroke="#FFF7ED" stroke-width="2.6" stroke-linecap="round" fill="none" opacity=".8"><path d="M178,242 L122,234"/><path d="M178,247 L124,253"/><path d="M222,242 L278,234"/><path d="M222,247 L276,253"/></g>
  <g><circle cx="170" cy="206" r="14" fill="#fff" stroke="#40241c" stroke-width="2"/><circle cx="173" cy="210" r="6" fill="#40241c"/><circle cx="230" cy="206" r="14" fill="#fff" stroke="#40241c" stroke-width="2"/><circle cx="233" cy="210" r="6" fill="#40241c"/></g>
  
  <rect x="191" y="233" width="18" height="7" rx="3.5" fill="#4B7C8C"/>
  <path d="M200,242 v6 M200,248 q-9,7 -15,-1 M200,248 q9,7 15,-1" stroke="#40241c" stroke-width="3" fill="none" stroke-linecap="round"/><path d="M193,252 h14 q0,14 -7,14 q-7,0 -7,-14 Z" fill="#4B7C8C"/>
  
</g>
<g><g fill="#D98763"><path d="M296,158 a9,7 0 1,0 9,7 V130 l18,-6 v26 a9,7 0 1,0 9,7 V118 l-36,12 Z"/></g></g>
</g>
<rect x="46" y="322" width="32" height="36" rx="5" fill="#D98763" stroke="#8F4F3F" stroke-width="2"/><rect x="46" y="330" width="32" height="14" fill="#4B7C8C" opacity=".8"/>
<rect x="0" y="0" width="400" height="400" fill="#FF7A3D" opacity=".1"/>


</g></g>
<rect x="422" y="258" width="180" height="180" rx="18" fill="none" stroke="#211a33" stroke-width="3.5"/>
</g><text x="512" y="464" text-anchor="middle" font-family="'IBM Plex Mono', ui-monospace, SFMono-Regular, Menlo, monospace" font-size="18" fill="#211a33" opacity=".75">marlow</text>
<g>
<rect x="626" y="264" width="180" height="180" rx="18" fill="#211a33" opacity=".82"/>
<g transform="translate(620,258) scale(0.45)"><defs>
<clipPath id="bc19e3rfcr7"><path d="M150,230 C126,264 110,316 112,356 L288,356 C290,316 274,264 250,230 C226,218 174,218 150,230 Z"/></clipPath>
<clipPath id="hc19e3rfcr7"><path d="M124,172 L126,122 L122,82 L162,114
    L238,114 L278,82 L274,122 L276,172
    C275,214 248,238 200,240
    C152,238 125,214 124,172 Z"/></clipPath>
<clipPath id="fc19e3rfcr7"><rect x="0" y="0" width="400" height="400" rx="40"/></clipPath>
</defs>
<g clip-path="url(#fc19e3rfcr7)">
<rect x="0" y="0" width="400" height="400" fill="#5A6B7C"/><path d="M200,-40 L440,400 L-40,400 Z" fill="#F1F3F2" opacity=".16"/>
<ellipse cx="200" cy="362" rx="143.4" ry="14" fill="#22303D" opacity=".16"/>
<g transform="translate(200,368) scale(1.12) rotate(0) translate(-200,-368)">
<g><path d="M286,344 C320,360 226,374 146,360" fill="none" stroke="#22303D" stroke-width="22" stroke-linecap="round"/><path d="M286,344 C320,360 226,374 146,360" pathLength="100" fill="none" stroke="#F1F3F2" stroke-width="22" stroke-linecap="round" stroke-dasharray="16 100" stroke-dashoffset="-84"/></g>
<path d="M150,230 C126,264 110,316 112,356 L288,356 C290,316 274,264 250,230 C226,218 174,218 150,230 Z" fill="none" stroke="#8FA6B8" stroke-width="14" stroke-dasharray="3 13"/>
<path d="M150,230 C126,264 110,316 112,356 L288,356 C290,316 274,264 250,230 C226,218 174,218 150,230 Z" fill="#8FA6B8"/>
<g clip-path="url(#bc19e3rfcr7)"><path d="M95.5,275.1 a16,16 0 0,1 16,-16 a20,20 0 0,1 34,4 a14,14 0 0,1 4,26 h-46 a14,14 0 0,1 -8,-14 Z" fill="#F1F3F2" opacity=".55"/><path d="M132.9,279.2 a16,16 0 0,1 16,-16 a20,20 0 0,1 34,4 a14,14 0 0,1 4,26 h-46 a14,14 0 0,1 -8,-14 Z" fill="#F1F3F2" opacity=".55"/><path d="M157.9,256.8 a16,16 0 0,1 16,-16 a20,20 0 0,1 34,4 a14,14 0 0,1 4,26 h-46 a14,14 0 0,1 -8,-14 Z" fill="#F1F3F2" opacity=".55"/><path d="M174.3,261.8 a16,16 0 0,1 16,-16 a20,20 0 0,1 34,4 a14,14 0 0,1 4,26 h-46 a14,14 0 0,1 -8,-14 Z" fill="#F1F3F2" opacity=".55"/><path d="M233,255.2 a16,16 0 0,1 16,-16 a20,20 0 0,1 34,4 a14,14 0 0,1 4,26 h-46 a14,14 0 0,1 -8,-14 Z" fill="#F1F3F2" opacity=".55"/></g>
<rect x="164" y="341" width="30" height="18" rx="9" fill="#F1F3F2"/><rect x="206" y="341" width="30" height="18" rx="9" fill="#F1F3F2"/>
    <circle cx="179" cy="350" r="4.5" fill="#F2B233"/><circle cx="221" cy="350" r="4.5" fill="#F2B233"/>
<g><ellipse cx="176" cy="305" rx="18" ry="11" fill="#F1F3F2" transform="rotate(18 176 305)"/><ellipse cx="224" cy="305" rx="18" ry="11" fill="#F1F3F2" transform="rotate(-18 224 305)"/><g transform="translate(200,298) scale(.94) translate(-200,-298)"><rect x="174" y="284" width="52" height="34" rx="3" fill="#F2B233"/><rect x="196" y="284" width="6" height="34" fill="#8FA6B8"/><rect x="174" y="316" width="52" height="5" fill="#F1F3F2"/></g></g>
<g transform="translate(200,168) scale(1,1.1) translate(-200,-168)">
  <path d="M124,172 L126,122 L122,82 L162,114
    L238,114 L278,82 L274,122 L276,172
    C275,214 248,238 200,240
    C152,238 125,214 124,172 Z" fill="#22303D"/>
  <g clip-path="url(#hc19e3rfcr7)"></g>
  <path d="M138,100 L166,120 L128,122 Z" fill="#F2B233" opacity=".5"/>
            <path d="M262,100 L234,120 L272,122 Z" fill="#F2B233" opacity=".5"/>
  <g stroke="#F1F3F2" stroke-width="2.6" stroke-linecap="round" fill="none" opacity=".8"><path d="M178,200 L124,216"/><path d="M178,205 L128,228"/><path d="M222,200 L276,216"/><path d="M222,205 L272,228"/></g>
  <g><path d="M156,164 Q170,175 184,164" fill="none" stroke="#0f161b" stroke-width="4.5" stroke-linecap="round"/><path d="M216,164 Q230,175 244,164" fill="none" stroke="#0f161b" stroke-width="4.5" stroke-linecap="round"/></g>
  
  <circle cx="200" cy="195" r="5.5" fill="#F2B233"/>
  <path d="M200,200 v6 M200,206 q-9,7 -15,-1 M200,206 q9,7 15,-1" stroke="#0f161b" stroke-width="3" fill="none" stroke-linecap="round"/><path d="M202,208 q10,2 8,12 q-8,4 -10,-6 Z" fill="#F2B233"/>
  <path d="M200,32 L234,112 L166,112 Z" fill="#F2B233"/><path d="M174,94 h52 M184,70 h32" stroke="#8FA6B8" stroke-width="5"/><circle cx="200" cy="28" r="9" fill="#8FA6B8"/>
</g>
<g><g fill="#F2B233"><path d="M296,112 C276,98 282,82 290,90 C294,94 298,94 302,90 C310,82 316,98 296,112 Z"/><g transform="translate(-46,44) scale(.6)"><path d="M296,112 C276,98 282,82 290,90 C294,94 298,94 302,90 C310,82 316,98 296,112 Z"/></g></g></g>
</g>
<g transform="translate(338,344)"><path d="M-24,0 q14,-16 30,0 q-16,16 -30,0 Z" fill="#F1F3F2" stroke="#22303D" stroke-width="2"/><path d="M6,0 l16,-10 0,20 Z" fill="#F1F3F2" stroke="#22303D" stroke-width="2"/><circle cx="-12" cy="-2" r="2" fill="#22303D"/></g>

<g stroke="#F1F3F2" stroke-width="5" fill="none" opacity=".65"><path d="M20,60 V20 H60 M340,20 H380 V60 M380,340 V380 H340 M60,380 H20 V340"/></g>

</g></g>
<rect x="620" y="258" width="180" height="180" rx="18" fill="none" stroke="#211a33" stroke-width="3.5"/>
</g><text x="710" y="464" text-anchor="middle" font-family="'IBM Plex Mono', ui-monospace, SFMono-Regular, Menlo, monospace" font-size="18" fill="#211a33" opacity=".75">pippin</text>
</svg>
